<mxfile host="Electron" agent="Mozilla/5.0 (Macintosh; Intel Mac OS X 10_15_7) AppleWebKit/537.36 (KHTML, like Gecko) draw.io/26.1.1 Chrome/132.0.6834.210 Electron/34.3.3 Safari/537.36" version="26.1.1">
  <diagram name="data-fields" id="ivfF4GWM53ZjKB8wbvqa">
    <mxGraphModel dx="1812" dy="1056" grid="1" gridSize="10" guides="1" tooltips="1" connect="1" arrows="1" fold="1" page="1" pageScale="1" pageWidth="827" pageHeight="1169" math="0" shadow="0">
      <root>
        <mxCell id="0" />
        <mxCell id="1" parent="0" />
        <mxCell id="taulqxEgYe-I9Oj6d4i8-7" style="edgeStyle=orthogonalEdgeStyle;rounded=0;orthogonalLoop=1;jettySize=auto;html=1;exitX=0.5;exitY=1;exitDx=0;exitDy=0;entryX=0.5;entryY=0;entryDx=0;entryDy=0;" parent="1" source="taulqxEgYe-I9Oj6d4i8-1" target="taulqxEgYe-I9Oj6d4i8-3" edge="1">
          <mxGeometry relative="1" as="geometry" />
        </mxCell>
        <mxCell id="taulqxEgYe-I9Oj6d4i8-1" value="Deployed Database Schema" style="rounded=0;whiteSpace=wrap;html=1;fillColor=#fff2cc;strokeColor=#d6b656;" parent="1" vertex="1">
          <mxGeometry x="200" y="280" width="120" height="60" as="geometry" />
        </mxCell>
        <mxCell id="taulqxEgYe-I9Oj6d4i8-2" value="Add DataFields from schema" style="text;html=1;align=center;verticalAlign=middle;resizable=0;points=[];autosize=1;strokeColor=none;fillColor=none;" parent="1" vertex="1">
          <mxGeometry x="60" y="210" width="180" height="30" as="geometry" />
        </mxCell>
        <mxCell id="taulqxEgYe-I9Oj6d4i8-8" style="edgeStyle=orthogonalEdgeStyle;rounded=0;orthogonalLoop=1;jettySize=auto;html=1;entryX=0;entryY=0.5;entryDx=0;entryDy=0;fillColor=#e1d5e7;strokeColor=#9673a6;" parent="1" source="taulqxEgYe-I9Oj6d4i8-3" target="taulqxEgYe-I9Oj6d4i8-6" edge="1">
          <mxGeometry relative="1" as="geometry" />
        </mxCell>
        <mxCell id="taulqxEgYe-I9Oj6d4i8-3" value="Relational Schema Type" style="rounded=0;whiteSpace=wrap;html=1;fillColor=#e1d5e7;strokeColor=#9673a6;" parent="1" vertex="1">
          <mxGeometry x="200" y="390" width="120" height="60" as="geometry" />
        </mxCell>
        <mxCell id="taulqxEgYe-I9Oj6d4i8-4" value="Relational Column" style="rounded=0;whiteSpace=wrap;html=1;fillColor=#e1d5e7;strokeColor=#9673a6;" parent="1" vertex="1">
          <mxGeometry x="470" y="620" width="120" height="60" as="geometry" />
        </mxCell>
        <mxCell id="taulqxEgYe-I9Oj6d4i8-5" value="Relational Column" style="rounded=0;whiteSpace=wrap;html=1;fillColor=#e1d5e7;strokeColor=#9673a6;" parent="1" vertex="1">
          <mxGeometry x="470" y="550" width="120" height="60" as="geometry" />
        </mxCell>
        <mxCell id="taulqxEgYe-I9Oj6d4i8-9" style="edgeStyle=orthogonalEdgeStyle;rounded=0;orthogonalLoop=1;jettySize=auto;html=1;exitX=0.5;exitY=1;exitDx=0;exitDy=0;fillColor=#e1d5e7;strokeColor=#9673a6;" parent="1" source="taulqxEgYe-I9Oj6d4i8-6" target="taulqxEgYe-I9Oj6d4i8-5" edge="1">
          <mxGeometry relative="1" as="geometry" />
        </mxCell>
        <mxCell id="taulqxEgYe-I9Oj6d4i8-10" style="edgeStyle=orthogonalEdgeStyle;rounded=0;orthogonalLoop=1;jettySize=auto;html=1;exitX=0.5;exitY=1;exitDx=0;exitDy=0;entryX=0;entryY=0.5;entryDx=0;entryDy=0;fillColor=#e1d5e7;strokeColor=#9673a6;" parent="1" source="taulqxEgYe-I9Oj6d4i8-6" target="taulqxEgYe-I9Oj6d4i8-4" edge="1">
          <mxGeometry relative="1" as="geometry" />
        </mxCell>
        <mxCell id="taulqxEgYe-I9Oj6d4i8-6" value="Relational Table" style="rounded=0;whiteSpace=wrap;html=1;fillColor=#e1d5e7;strokeColor=#9673a6;" parent="1" vertex="1">
          <mxGeometry x="310" y="490" width="120" height="60" as="geometry" />
        </mxCell>
        <mxCell id="taulqxEgYe-I9Oj6d4i8-28" style="edgeStyle=orthogonalEdgeStyle;rounded=0;orthogonalLoop=1;jettySize=auto;html=1;entryX=0;entryY=0.5;entryDx=0;entryDy=0;exitX=1;exitY=0.75;exitDx=0;exitDy=0;" parent="1" source="taulqxEgYe-I9Oj6d4i8-11" target="taulqxEgYe-I9Oj6d4i8-27" edge="1">
          <mxGeometry relative="1" as="geometry">
            <mxPoint x="1140" y="360" as="sourcePoint" />
          </mxGeometry>
        </mxCell>
        <mxCell id="taulqxEgYe-I9Oj6d4i8-11" value="DataField&lt;div&gt;&lt;br&gt;&lt;/div&gt;" style="rounded=0;whiteSpace=wrap;html=1;fillColor=#dae8fc;strokeColor=#6c8ebf;" parent="1" vertex="1">
          <mxGeometry x="1016" y="320" width="120" height="60" as="geometry" />
        </mxCell>
        <mxCell id="taulqxEgYe-I9Oj6d4i8-12" value="DataField" style="rounded=0;whiteSpace=wrap;html=1;fillColor=#dae8fc;strokeColor=#6c8ebf;" parent="1" vertex="1">
          <mxGeometry x="1016" y="390" width="120" height="60" as="geometry" />
        </mxCell>
        <mxCell id="taulqxEgYe-I9Oj6d4i8-15" style="edgeStyle=orthogonalEdgeStyle;rounded=0;orthogonalLoop=1;jettySize=auto;html=1;exitX=0.5;exitY=1;exitDx=0;exitDy=0;entryX=0;entryY=0.5;entryDx=0;entryDy=0;fillColor=#dae8fc;strokeColor=#6c8ebf;" parent="1" source="taulqxEgYe-I9Oj6d4i8-14" target="taulqxEgYe-I9Oj6d4i8-11" edge="1">
          <mxGeometry relative="1" as="geometry" />
        </mxCell>
        <mxCell id="taulqxEgYe-I9Oj6d4i8-16" style="edgeStyle=orthogonalEdgeStyle;rounded=0;orthogonalLoop=1;jettySize=auto;html=1;exitX=0.5;exitY=1;exitDx=0;exitDy=0;entryX=0;entryY=0.5;entryDx=0;entryDy=0;fillColor=#dae8fc;strokeColor=#6c8ebf;" parent="1" source="taulqxEgYe-I9Oj6d4i8-14" target="taulqxEgYe-I9Oj6d4i8-12" edge="1">
          <mxGeometry relative="1" as="geometry" />
        </mxCell>
        <mxCell id="taulqxEgYe-I9Oj6d4i8-26" style="edgeStyle=orthogonalEdgeStyle;rounded=0;orthogonalLoop=1;jettySize=auto;html=1;exitX=0.5;exitY=1;exitDx=0;exitDy=0;dashed=1;" parent="1" source="taulqxEgYe-I9Oj6d4i8-14" edge="1">
          <mxGeometry relative="1" as="geometry">
            <mxPoint x="983" y="500" as="targetPoint" />
          </mxGeometry>
        </mxCell>
        <mxCell id="taulqxEgYe-I9Oj6d4i8-14" value="DataDictionary" style="rounded=0;whiteSpace=wrap;html=1;fillColor=#0050ef;strokeColor=#001DBC;fontColor=#ffffff;" parent="1" vertex="1">
          <mxGeometry x="923" y="210" width="120" height="60" as="geometry" />
        </mxCell>
        <mxCell id="taulqxEgYe-I9Oj6d4i8-17" value="DataField" style="rounded=0;whiteSpace=wrap;html=1;fillColor=#dae8fc;strokeColor=#6c8ebf;" parent="1" vertex="1">
          <mxGeometry x="1086" y="880" width="120" height="60" as="geometry" />
        </mxCell>
        <mxCell id="taulqxEgYe-I9Oj6d4i8-18" value="DataField" style="rounded=0;whiteSpace=wrap;html=1;fillColor=#dae8fc;strokeColor=#6c8ebf;" parent="1" vertex="1">
          <mxGeometry x="1086" y="950" width="120" height="60" as="geometry" />
        </mxCell>
        <mxCell id="taulqxEgYe-I9Oj6d4i8-19" style="edgeStyle=orthogonalEdgeStyle;rounded=0;orthogonalLoop=1;jettySize=auto;html=1;exitX=0.5;exitY=1;exitDx=0;exitDy=0;entryX=0;entryY=0.5;entryDx=0;entryDy=0;fillColor=#dae8fc;strokeColor=#6c8ebf;" parent="1" source="taulqxEgYe-I9Oj6d4i8-21" target="taulqxEgYe-I9Oj6d4i8-17" edge="1">
          <mxGeometry relative="1" as="geometry" />
        </mxCell>
        <mxCell id="taulqxEgYe-I9Oj6d4i8-20" style="edgeStyle=orthogonalEdgeStyle;rounded=0;orthogonalLoop=1;jettySize=auto;html=1;exitX=0.5;exitY=1;exitDx=0;exitDy=0;entryX=0;entryY=0.5;entryDx=0;entryDy=0;fillColor=#dae8fc;strokeColor=#6c8ebf;" parent="1" source="taulqxEgYe-I9Oj6d4i8-21" target="taulqxEgYe-I9Oj6d4i8-18" edge="1">
          <mxGeometry relative="1" as="geometry" />
        </mxCell>
        <mxCell id="taulqxEgYe-I9Oj6d4i8-21" value="DataStructure" style="rounded=0;whiteSpace=wrap;html=1;fillColor=#dae8fc;strokeColor=#6c8ebf;" parent="1" vertex="1">
          <mxGeometry x="993" y="760" width="120" height="60" as="geometry" />
        </mxCell>
        <mxCell id="taulqxEgYe-I9Oj6d4i8-23" style="edgeStyle=orthogonalEdgeStyle;rounded=0;orthogonalLoop=1;jettySize=auto;html=1;exitX=0.25;exitY=1;exitDx=0;exitDy=0;entryX=0;entryY=0.5;entryDx=0;entryDy=0;fillColor=#dae8fc;strokeColor=#6c8ebf;" parent="1" source="taulqxEgYe-I9Oj6d4i8-22" target="taulqxEgYe-I9Oj6d4i8-21" edge="1">
          <mxGeometry relative="1" as="geometry" />
        </mxCell>
        <mxCell id="taulqxEgYe-I9Oj6d4i8-22" value="DataSpec" style="rounded=0;whiteSpace=wrap;html=1;fillColor=#dae8fc;strokeColor=#6c8ebf;" parent="1" vertex="1">
          <mxGeometry x="923" y="660" width="120" height="60" as="geometry" />
        </mxCell>
        <mxCell id="taulqxEgYe-I9Oj6d4i8-24" value="" style="shape=flexArrow;endArrow=classic;html=1;rounded=0;" parent="1" edge="1">
          <mxGeometry width="50" height="50" relative="1" as="geometry">
            <mxPoint x="620" y="600" as="sourcePoint" />
            <mxPoint x="770" y="530" as="targetPoint" />
          </mxGeometry>
        </mxCell>
        <mxCell id="taulqxEgYe-I9Oj6d4i8-25" value="" style="shape=flexArrow;endArrow=classic;html=1;rounded=0;" parent="1" edge="1">
          <mxGeometry width="50" height="50" relative="1" as="geometry">
            <mxPoint x="620" y="610" as="sourcePoint" />
            <mxPoint x="770" y="690" as="targetPoint" />
          </mxGeometry>
        </mxCell>
        <mxCell id="taulqxEgYe-I9Oj6d4i8-27" value="DataClass&lt;div&gt;&lt;br&gt;&lt;/div&gt;" style="rounded=0;whiteSpace=wrap;html=1;fillColor=#d5e8d4;strokeColor=#82b366;" parent="1" vertex="1">
          <mxGeometry x="1320" y="335" width="120" height="60" as="geometry" />
        </mxCell>
        <mxCell id="taulqxEgYe-I9Oj6d4i8-29" value="Structural" style="text;html=1;align=center;verticalAlign=middle;resizable=0;points=[];autosize=1;strokeColor=none;fillColor=none;" parent="1" vertex="1">
          <mxGeometry x="1041" y="350" width="70" height="30" as="geometry" />
        </mxCell>
        <mxCell id="taulqxEgYe-I9Oj6d4i8-30" value="Valid Values" style="text;html=1;align=center;verticalAlign=middle;resizable=0;points=[];autosize=1;strokeColor=none;fillColor=none;" parent="1" vertex="1">
          <mxGeometry x="1335" y="365" width="90" height="30" as="geometry" />
        </mxCell>
        <mxCell id="taulqxEgYe-I9Oj6d4i8-38" style="edgeStyle=orthogonalEdgeStyle;rounded=0;orthogonalLoop=1;jettySize=auto;html=1;exitX=1;exitY=0.5;exitDx=0;exitDy=0;entryX=0;entryY=0.5;entryDx=0;entryDy=0;dashed=1;" parent="1" source="taulqxEgYe-I9Oj6d4i8-39" target="taulqxEgYe-I9Oj6d4i8-43" edge="1">
          <mxGeometry relative="1" as="geometry" />
        </mxCell>
        <mxCell id="taulqxEgYe-I9Oj6d4i8-39" value="DataField" style="rounded=0;whiteSpace=wrap;html=1;fillColor=#dae8fc;strokeColor=#6c8ebf;" parent="1" vertex="1">
          <mxGeometry x="1096" y="480" width="120" height="60" as="geometry" />
        </mxCell>
        <mxCell id="taulqxEgYe-I9Oj6d4i8-40" style="edgeStyle=orthogonalEdgeStyle;rounded=0;orthogonalLoop=1;jettySize=auto;html=1;entryX=0;entryY=0.5;entryDx=0;entryDy=0;fillColor=#dae8fc;strokeColor=#6c8ebf;exitX=0.5;exitY=1;exitDx=0;exitDy=0;" parent="1" source="taulqxEgYe-I9Oj6d4i8-12" target="taulqxEgYe-I9Oj6d4i8-39" edge="1">
          <mxGeometry relative="1" as="geometry">
            <mxPoint x="1043" y="470" as="sourcePoint" />
          </mxGeometry>
        </mxCell>
        <mxCell id="taulqxEgYe-I9Oj6d4i8-41" value="DataField" style="rounded=0;whiteSpace=wrap;html=1;fillColor=#dae8fc;strokeColor=#6c8ebf;" parent="1" vertex="1">
          <mxGeometry x="1096" y="549" width="120" height="60" as="geometry" />
        </mxCell>
        <mxCell id="taulqxEgYe-I9Oj6d4i8-42" style="edgeStyle=orthogonalEdgeStyle;rounded=0;orthogonalLoop=1;jettySize=auto;html=1;exitX=0.5;exitY=1;exitDx=0;exitDy=0;entryX=0;entryY=0.5;entryDx=0;entryDy=0;fillColor=#dae8fc;strokeColor=#6c8ebf;" parent="1" source="taulqxEgYe-I9Oj6d4i8-12" target="taulqxEgYe-I9Oj6d4i8-41" edge="1">
          <mxGeometry relative="1" as="geometry">
            <mxPoint x="1056" y="440" as="sourcePoint" />
          </mxGeometry>
        </mxCell>
        <mxCell id="taulqxEgYe-I9Oj6d4i8-43" value="DataField" style="rounded=0;whiteSpace=wrap;html=1;fillColor=#dae8fc;strokeColor=#6c8ebf;" parent="1" vertex="1">
          <mxGeometry x="1360" y="480" width="120" height="60" as="geometry" />
        </mxCell>
        <mxCell id="taulqxEgYe-I9Oj6d4i8-44" value="LinkedDataField" style="text;html=1;align=center;verticalAlign=middle;resizable=0;points=[];autosize=1;strokeColor=none;fillColor=none;" parent="1" vertex="1">
          <mxGeometry x="1225" y="480" width="110" height="30" as="geometry" />
        </mxCell>
        <mxCell id="taulqxEgYe-I9Oj6d4i8-45" value="Nested&amp;nbsp;&lt;span style=&quot;background-color: transparent; color: light-dark(rgb(0, 0, 0), rgb(255, 255, 255));&quot;&gt;Data Field&lt;/span&gt;" style="text;html=1;align=center;verticalAlign=middle;resizable=0;points=[];autosize=1;strokeColor=none;fillColor=none;" parent="1" vertex="1">
          <mxGeometry x="1080" y="450" width="120" height="30" as="geometry" />
        </mxCell>
        <mxCell id="taulqxEgYe-I9Oj6d4i8-46" style="edgeStyle=orthogonalEdgeStyle;rounded=0;orthogonalLoop=1;jettySize=auto;html=1;exitX=1;exitY=0.25;exitDx=0;exitDy=0;entryX=0;entryY=0.5;entryDx=0;entryDy=0;" parent="1" source="taulqxEgYe-I9Oj6d4i8-11" target="taulqxEgYe-I9Oj6d4i8-47" edge="1">
          <mxGeometry relative="1" as="geometry">
            <mxPoint x="1136" y="250" as="sourcePoint" />
          </mxGeometry>
        </mxCell>
        <mxCell id="taulqxEgYe-I9Oj6d4i8-47" value="GlossaryTerm&lt;div&gt;&lt;br&gt;&lt;/div&gt;" style="rounded=0;whiteSpace=wrap;html=1;fillColor=#d5e8d4;strokeColor=#82b366;" parent="1" vertex="1">
          <mxGeometry x="1320" y="220" width="120" height="60" as="geometry" />
        </mxCell>
        <mxCell id="taulqxEgYe-I9Oj6d4i8-48" value="Meaning" style="text;html=1;align=center;verticalAlign=middle;resizable=0;points=[];autosize=1;strokeColor=none;fillColor=none;rotation=0;" parent="1" vertex="1">
          <mxGeometry x="1345" y="250" width="70" height="30" as="geometry" />
        </mxCell>
        <mxCell id="taulqxEgYe-I9Oj6d4i8-49" value="Object&lt;div&gt;Identifier&lt;/div&gt;" style="rounded=1;whiteSpace=wrap;html=1;" parent="1" vertex="1">
          <mxGeometry x="1178" y="860" width="80" height="40" as="geometry" />
        </mxCell>
        <mxCell id="taulqxEgYe-I9Oj6d4i8-50" value="MoreInformation" style="text;html=1;align=center;verticalAlign=middle;resizable=0;points=[];autosize=1;strokeColor=none;fillColor=none;" parent="1" vertex="1">
          <mxGeometry x="1195" y="365" width="110" height="30" as="geometry" />
        </mxCell>
        <mxCell id="taulqxEgYe-I9Oj6d4i8-51" value="MoreInformation" style="text;html=1;align=center;verticalAlign=middle;resizable=0;points=[];autosize=1;strokeColor=none;fillColor=none;" parent="1" vertex="1">
          <mxGeometry x="1193" y="220" width="110" height="30" as="geometry" />
        </mxCell>
        <mxCell id="taulqxEgYe-I9Oj6d4i8-52" value="CollectionMembership" style="text;html=1;align=center;verticalAlign=middle;resizable=0;points=[];autosize=1;strokeColor=none;fillColor=none;" parent="1" vertex="1">
          <mxGeometry x="840" y="280" width="140" height="30" as="geometry" />
        </mxCell>
        <mxCell id="taulqxEgYe-I9Oj6d4i8-53" value="MemberDataField" style="text;html=1;align=center;verticalAlign=middle;resizable=0;points=[];autosize=1;strokeColor=none;fillColor=none;" parent="1" vertex="1">
          <mxGeometry x="1050" y="820" width="120" height="30" as="geometry" />
        </mxCell>
        <mxCell id="taulqxEgYe-I9Oj6d4i8-54" value="CollectionMembership" style="text;html=1;align=center;verticalAlign=middle;resizable=0;points=[];autosize=1;strokeColor=none;fillColor=none;" parent="1" vertex="1">
          <mxGeometry x="956" y="720" width="140" height="30" as="geometry" />
        </mxCell>
      </root>
    </mxGraphModel>
  </diagram>
</mxfile>
